<?xml version="1.0" encoding="UTF-8"?>
<svg version="1.1" xmlns="http://www.w3.org/2000/svg" width="224" height="225">
<path d="M0 0 C73.92 0 147.84 0 224 0 C224 74.25 224 148.5 224 225 C150.08 225 76.16 225 0 225 C0 150.75 0 76.5 0 0 Z " fill="#FEFEFE" transform="translate(0,0)"/>
<path d="M0 0 C1.2079422 -0.00619858 2.4158844 -0.01239716 3.66043091 -0.01878357 C6.20704343 -0.02586463 8.75370241 -0.02273788 11.30029297 -0.01000977 C15.17633176 0.00383844 19.04994656 -0.03022592 22.92578125 -0.06835938 C25.40885475 -0.06931085 27.89193125 -0.06745022 30.375 -0.0625 C31.52322235 -0.07575821 32.6714447 -0.08901642 33.85446167 -0.10267639 C41.30720948 -0.01734168 47.1484264 1.2153387 53.3203125 5.56640625 C59.07787997 11.61759217 61.89560486 17.47523936 61.6953125 25.875 C60.69700382 33.03994461 56.90491479 38.71541943 51.45703125 43.3125 C44.20061327 47.57083669 37.72367068 48.02266015 29.48046875 48 C28.35893906 48.00524185 27.23740936 48.0104837 26.08189392 48.0158844 C23.71939926 48.02228348 21.35687264 48.02099514 18.99438477 48.01245117 C15.39736734 48.00394069 11.80193905 48.03273564 8.20507812 48.06445312 C5.90104214 48.06606544 3.59700336 48.06548703 1.29296875 48.0625 C-0.30586403 48.07935097 -0.30586403 48.07935097 -1.93699646 48.09654236 C-11.55826891 48.00758251 -18.7748282 45.30686414 -25.6796875 38.56640625 C-30.10659308 32.30767767 -30.25419134 26.04559518 -29.6796875 18.56640625 C-27.54056772 11.43600697 -23.61416951 6.38898041 -17.34790039 2.49707031 C-11.73253011 -0.24403307 -6.14150197 -0.02643567 0 0 Z " fill="#1D3D3D" transform="translate(95.6796875,66.43359375)"/>
<path d="M0 0 C0.66 0 1.32 0 2 0 C3.32 0 4.64 0 6 0 C6.08741124 3.56234428 6.14052896 7.12441108 6.1875 10.6875 C6.21263672 11.69490234 6.23777344 12.70230469 6.26367188 13.74023438 C6.35671709 23.13780081 6.35671709 23.13780081 3 27 C-0.46768176 29.36432847 -2.41018731 30.01016918 -6.625 29.9375 C-10.27430177 28.92380506 -11.73406469 27.99103461 -14 25 C-14 24.34 -14 23.68 -14 23 C-12.33388095 22.957279 -10.66617115 22.95936168 -9 23 C-8.67 23.33 -8.34 23.66 -8 24 C-5.66702567 24.04092937 -3.33294775 24.04241723 -1 24 C-0.67 23.01 -0.34 22.02 0 21 C-0.60328125 21.04640625 -1.2065625 21.0928125 -1.828125 21.140625 C-8.4158215 21.43813387 -8.4158215 21.43813387 -11.5 19.125 C-14.65700562 14.65257537 -14.76716405 10.36171801 -14 5 C-9.75878266 -0.61674729 -6.66496119 -1.27626916 0 0 Z " fill="#1C3A3A" transform="translate(93,130)"/>
<path d="M0 0 C2.6108589 2.6108589 4.98200344 5.16795025 5.01953125 8.98828125 C4.55989276 14.14837369 3.87118968 17.2461191 0 21 C-2.73905345 22.36952673 -4.97087332 22.12621361 -8 22 C-8.66 21.67 -9.32 21.34 -10 21 C-10 23.97 -10 26.94 -10 30 C-11.65 30 -13.3 30 -15 30 C-15 20.1 -15 10.2 -15 0 C-5.75471698 -1.32075472 -5.75471698 -1.32075472 0 0 Z " fill="#2B4646" transform="translate(183,130)"/>
<path d="M0 0 C4.72629093 1.60213252 5.68208171 3.61350438 8.1484375 7.78125 C9.67931137 10.23686493 11.34272681 12.20023258 13.3125 14.3125 C17.19054963 18.61188983 20.6875 23.29768945 20.6875 29.25 C19.3675 28.92 18.0475 28.59 16.6875 28.25 C16.6875 27.59 16.6875 26.93 16.6875 26.25 C15.0375 25.92 13.3875 25.59 11.6875 25.25 C11.6875 26.57 11.6875 27.89 11.6875 29.25 C12.6775 29.58 13.6675 29.91 14.6875 30.25 C10.63537741 31.09811868 7.70086646 31.22622427 3.6875 30.25 C2.6975 30.25 1.7075 30.25 0.6875 30.25 C0.6875 29.59 0.6875 28.93 0.6875 28.25 C2.3375 28.25 3.9875 28.25 5.6875 28.25 C3.6922621 23.38325416 3.6922621 23.38325416 1.125 18.8125 C-0.80066506 15.37979272 -1.46640689 12.08996105 -2.3125 8.25 C-3.9625 8.25 -5.6125 8.25 -7.3125 8.25 C-6.96030657 5.64376858 -6.54776531 3.64210885 -5.1875 1.375 C-3.3125 0.25 -3.3125 0.25 0 0 Z " fill="#21AE4A" transform="translate(89.3125,74.75)"/>
<path d="M0 0 C3.01845478 1.98943611 4.24624275 3.5543593 5.75 6.8125 C5.75 7.4725 5.75 8.1325 5.75 8.8125 C3.4375 9.0625 3.4375 9.0625 0.75 8.8125 C0.316875 8.1525 -0.11625 7.4925 -0.5625 6.8125 C-2.02570798 4.656999 -2.02570798 4.656999 -4.10546875 4.44140625 C-7.30359217 4.34237511 -9.49670105 4.30220071 -12.1875 6.125 C-14.58355702 9.93050232 -14.62758238 13.43254443 -14.25 17.8125 C-12.92838573 20.88123898 -12.92838573 20.88123898 -10.25 22.8125 C-7.18569003 23.57087048 -5.50319845 23.32888071 -2.25 22.8125 C-0.16783124 20.4575037 -0.16783124 20.4575037 0.75 17.8125 C-0.57 17.4825 -1.89 17.1525 -3.25 16.8125 C-3.25 15.4925 -3.25 14.1725 -3.25 12.8125 C0.05 12.8125 3.35 12.8125 6.75 12.8125 C7.30165303 18.46694353 5.8965863 21.2674309 2.75 25.8125 C-1.80356189 28.79552753 -7.01237158 28.44971889 -12.25 27.8125 C-15.93542659 25.70654195 -17.68961607 23.70000823 -19.25 19.8125 C-19.86002664 14.84238821 -20.4210604 9.3365784 -18.26953125 4.69921875 C-13.27287534 -1.49663457 -7.43615491 -2.7170566 0 0 Z " fill="#1A3A3A" transform="translate(122.25,123.1875)"/>
<path d="M0 0 C1.99819292 1.5879477 2.9048122 2.44299782 3.34057617 4.99291992 C3.32486572 5.73131104 3.30915527 6.46970215 3.29296875 7.23046875 C3.28330078 8.03291016 3.27363281 8.83535156 3.26367188 9.66210938 C3.23853516 10.49548828 3.21339844 11.32886719 3.1875 12.1875 C3.16719727 13.4549707 3.16719727 13.4549707 3.14648438 14.74804688 C3.11115799 16.83230384 3.05735139 18.91623277 3 21 C0.92002174 21.2765289 -1.1643308 21.52030075 -3.25 21.75 C-4.41015625 21.88921875 -5.5703125 22.0284375 -6.765625 22.171875 C-10 22 -10 22 -12.4140625 20.23828125 C-14 18 -14 18 -14.125 14.4375 C-13 11 -13 11 -10.3125 9.0625 C-6.98062362 7.99378494 -4.47168957 7.75202217 -1 8 C-1.33 6.68 -1.66 5.36 -2 4 C-4.35171131 4.59861742 -6.6859378 5.26924352 -9 6 C-9.33 6.66 -9.66 7.32 -10 8 C-11.32 7.34 -12.64 6.68 -14 6 C-13.15646064 3.32879201 -12.54188875 1.45852125 -10.375 -0.375 C-6.86031035 -1.29991833 -3.4760594 -1.06351715 0 0 Z " fill="#163737" transform="translate(161,130)"/>
<path d="M0 0 C0.76183594 -0.02835938 1.52367187 -0.05671875 2.30859375 -0.0859375 C5.61173725 0.58957538 6.65405035 1.59202377 8.5625 4.375 C9.03924862 7.31004196 8.94027365 10.16163431 8.8125 13.125 C8.79445313 13.91777344 8.77640625 14.71054688 8.7578125 15.52734375 C8.71083082 17.47708348 8.63909044 19.42619878 8.5625 21.375 C6.4815156 21.62459784 4.39749188 21.84894907 2.3125 22.0625 C1.15234375 22.19011719 -0.0078125 22.31773437 -1.203125 22.44921875 C-4.4375 22.375 -4.4375 22.375 -6.828125 21.11328125 C-8.4375 19.375 -8.4375 19.375 -8.9375 15.875 C-8.4375 12.375 -8.4375 12.375 -6.9375 10.5 C-3.43207192 8.92255736 -0.26650271 8.69408356 3.5625 8.375 C3.2325 7.385 2.9025 6.395 2.5625 5.375 C-1.69481568 4.96750325 -1.69481568 4.96750325 -5.3125 6.875 C-5.68375 7.37 -6.055 7.865 -6.4375 8.375 C-7.0975 7.715 -7.7575 7.055 -8.4375 6.375 C-8.25 4.375 -8.25 4.375 -7.4375 2.375 C-4.37702368 0.33468245 -3.50254006 0.05906476 0 0 Z " fill="#254141" transform="translate(45.4375,129.625)"/>
<path d="M0 0 C1.65 0 3.3 0 5 0 C5.33 2.31 5.66 4.62 6 7 C6.66 6.67 7.32 6.34 8 6 C11.87214182 5.56976202 13.52496371 5.68330914 16.8125 7.875 C19.80931277 10.78618955 19.9846988 11.42100249 20.09765625 15.6953125 C20.09100493 17.17190652 20.07907574 18.64848404 20.0625 20.125 C20.05798828 20.87910156 20.05347656 21.63320312 20.04882812 22.41015625 C20.03703499 24.27347127 20.01909942 26.13674555 20 28 C18.35 28 16.7 28 15 28 C14.93941406 27.01257813 14.87882813 26.02515625 14.81640625 25.0078125 C14.73261719 23.72648437 14.64882812 22.44515625 14.5625 21.125 C14.44068359 19.21074219 14.44068359 19.21074219 14.31640625 17.2578125 C14.20793973 14.11699848 14.20793973 14.11699848 13 12 C11.02 12 9.04 12 7 12 C5.5192152 14.9615696 5.64685963 17.83506295 5.4375 21.125 C5.35371094 22.40632813 5.26992187 23.68765625 5.18359375 25.0078125 C5.09271484 26.48894531 5.09271484 26.48894531 5 28 C3.35 28 1.7 28 0 28 C0 18.76 0 9.52 0 0 Z " fill="#1F3C3C" transform="translate(190,123)"/>
<path d="M0 0 C1.66611905 -0.042721 3.33382885 -0.04063832 5 0 C6 1 6 1 6.0625 3.5625 C6.041875 4.366875 6.02125 5.17125 6 6 C5.34 6 4.68 6 4 6 C4 6.66 4 7.32 4 8 C4.804375 8.1546875 4.804375 8.1546875 5.625 8.3125 C8.62502044 9.18092697 11.2379535 10.55620296 14 12 C14.042721 13.66611905 14.04063832 15.33382885 14 17 C13 18 13 18 10.5625 18.25 C9.716875 18.1675 8.87125 18.085 8 18 C7.34 17.01 6.68 16.02 6 15 C5.67 15.33 5.34 15.66 5 16 C2.66702567 16.04092937 0.33294775 16.04241723 -2 16 C-1.67 17.65 -1.34 19.3 -1 21 C-1.66 20.67 -2.32 20.34 -3 20 C-3 19.34 -3 18.68 -3 18 C-4.65 17.67 -6.3 17.34 -8 17 C-8.625 15.125 -8.625 15.125 -9 13 C-8.34 12.34 -7.68 11.68 -7 11 C-5.68 11 -4.36 11 -3 11 C-1.72746564 7.35206816 -0.67170806 3.8063457 0 0 Z " fill="#1A453A" transform="translate(126,75)"/>
<path d="M0 0 C13.18930958 -0.48849295 13.18930958 -0.48849295 16.4375 1.46875 C18.74028349 5.19925925 18.43492146 8.46124459 18.25 12.75 C18.23195313 13.54277344 18.21390625 14.33554688 18.1953125 15.15234375 C18.14833082 17.10208348 18.07659044 19.05119878 18 21 C16.68 21 15.36 21 14 21 C13.93941406 19.92878906 13.87882812 18.85757813 13.81640625 17.75390625 C13.73201463 16.35675609 13.64736594 14.95962143 13.5625 13.5625 C13.52318359 12.85544922 13.48386719 12.14839844 13.44335938 11.41992188 C13.52375562 7.91309581 13.52375562 7.91309581 12 5 C9.69 5 7.38 5 5 5 C4.67 10.28 4.34 15.56 4 21 C2.68 21 1.36 21 0 21 C0 14.07 0 7.14 0 0 Z " fill="#123333" transform="translate(58,130)"/>
<path d="M0 0 C1.32 0 2.64 0 4 0 C4 7.92 4 15.84 4 24 C8.95 24 13.9 24 19 24 C19 25.32 19 26.64 19 28 C12.73 28 6.46 28 0 28 C0 18.76 0 9.52 0 0 Z " fill="#002121" transform="translate(16,123)"/>
<path d="M0 0 C1.98 0 3.96 0 6 0 C6.33 0.66 6.66 1.32 7 2 C6.5359375 3.0828125 6.5359375 3.0828125 6.0625 4.1875 C4.74685331 7.67009417 4.65776925 10.30390789 5 14 C6.27159652 15.85602615 6.27159652 15.85602615 8 17 C8.66 17.66 9.32 18.32 10 19 C9.67 19.33 9.34 19.66 9 20 C7.35 20 5.7 20 4 20 C4 23.3 4 26.6 4 30 C2.68 30 1.36 30 0 30 C0 20.1 0 10.2 0 0 Z " fill="#133636" transform="translate(168,130)"/>
<path d="M0 0 C-0.33 0.99 -0.66 1.98 -1 3 C0.32 3.33 1.64 3.66 3 4 C2.6875 6.375 2.6875 6.375 2 9 C1.01 9.66 0.02 10.32 -1 11 C-0.01 11.66 0.98 12.32 2 13 C-0.84083641 14.42041821 -2.85477278 14.31452272 -6 14 C-8.4375 12.4375 -8.4375 12.4375 -10 10 C-10.125 6.4375 -10.125 6.4375 -9 3 C-5.78857666 0.83577992 -3.87553592 0 0 0 Z " fill="#274444" transform="translate(157,138)"/>
<path d="M0 0 C3 0.25 3 0.25 5 2.25 C5.46376812 9.55434783 5.46376812 9.55434783 3 13.25 C0.0625 13.6875 0.0625 13.6875 -3 13.25 C-4.9375 11.6875 -4.9375 11.6875 -6 9.25 C-5.54545455 0.46212121 -5.54545455 0.46212121 0 0 Z " fill="#F8F8F8" transform="translate(89,133.75)"/>
<path d="M0 0 C3 -0.3125 3 -0.3125 6 0 C8 2 8 2 8.265625 4.09375 C8.26046875 4.8878125 8.2553125 5.681875 8.25 6.5 C8.25515625 7.2940625 8.2603125 8.088125 8.265625 8.90625 C8 11 8 11 6 13 C3 13.3125 3 13.3125 0 13 C-2.45811625 9.31282562 -2.31118164 7.35654296 -2 3 C-1.34 2.01 -0.68 1.02 0 0 Z " fill="#F9F9F9" transform="translate(174,134)"/>
<path d="M0 0 C1.32 0 2.64 0 4 0 C4.33 0.66 4.66 1.32 5 2 C5.66 1.34 6.32 0.68 7 0 C8.32 0 9.64 0 11 0 C11 1.32 11 2.64 11 4 C9.35 4.33 7.7 4.66 6 5 C4.89485234 8.31544299 4.67892369 11.20410111 4.4375 14.6875 C4.35371094 15.86699219 4.26992187 17.04648438 4.18359375 18.26171875 C4.12300781 19.16535156 4.06242188 20.06898438 4 21 C2.68 21 1.36 21 0 21 C0 14.07 0 7.14 0 0 Z " fill="#123333" transform="translate(133,130)"/>
<path d="M0 0 C4.15293935 0.27232389 6.35336299 0.97011424 9.8125 3.25 C12.8125 7.35 12.8125 7.35 12.8125 10.25 C10.5 10.5 10.5 10.5 7.8125 10.25 C7.19375 9.26 7.19375 9.26 6.5625 8.25 C5.01076383 6.02757944 5.01076383 6.02757944 2.62890625 5.984375 C0.34543403 5.99862444 -1.91073958 6.07816902 -4.1875 6.25 C-4.230221 4.58388095 -4.22813832 2.91617115 -4.1875 1.25 C-3.1875 0.25 -3.1875 0.25 0 0 Z " fill="#1F3D3D" transform="translate(115.1875,121.75)"/>
<path d="M0 0 C0.66 0 1.32 0 2 0 C2.33 7.59 2.66 15.18 3 23 C9.93 23.495 9.93 23.495 17 24 C17 24.66 17 25.32 17 26 C11.39 26 5.78 26 0 26 C0 17.42 0 8.84 0 0 Z " fill="#1C3C3C" transform="translate(17,124)"/>
<path d="M0 0 C-0.33 0.99 -0.66 1.98 -1 3 C-4.0625 4.1875 -4.0625 4.1875 -7 5 C-7 5.99 -7 6.98 -7 8 C-5.68 8.33 -4.36 8.66 -3 9 C-3 9.66 -3 10.32 -3 11 C-6.375 11.625 -6.375 11.625 -10 12 C-12 10 -12 10 -12.375 6.5625 C-12 3 -12 3 -10.25 1.125 C-6.43392645 -0.78303678 -4.11887657 -1.32392461 0 0 Z " fill="#153636" transform="translate(49,139)"/>
<path d="M0 0 C1.24546405 2.49092811 0.7767578 3.41080733 0 6 C1.98 6 3.96 6 6 6 C6 6.33 6 6.66 6 7 C4.02 7 2.04 7 0 7 C0.33 8.98 0.66 10.96 1 13 C0.34 12.67 -0.32 12.34 -1 12 C-1 11.34 -1 10.68 -1 10 C-2.65 9.67 -4.3 9.34 -6 9 C-6.625 7.125 -6.625 7.125 -7 5 C-6.34 4.34 -5.68 3.68 -5 3 C-3.68 3 -2.36 3 -1 3 C-0.67 2.01 -0.34 1.02 0 0 Z " fill="#21B14B" transform="translate(124,83)"/>
<path d="M0 0 C-0.99 0.33 -1.98 0.66 -3 1 C-3 1.99 -3 2.98 -3 4 C-3.804375 4.28875 -4.60875 4.5775 -5.4375 4.875 C-8.1326468 5.73262568 -8.1326468 5.73262568 -9 8 C-10.32 7.34 -11.64 6.68 -13 6 C-12.14382686 3.28878505 -11.54750525 1.44611539 -9.3125 -0.375 C-6.02940656 -1.26232255 -3.30046211 -0.63470425 0 0 Z " fill="#284444" transform="translate(160,130)"/>
<path d="M0 0 C3.96 1.98 3.96 1.98 8 4 C8.042721 5.66611905 8.04063832 7.33382885 8 9 C7 10 7 10 4.5 10.125 C2 10 2 10 1 9 C0.54234333 6.01110641 0.29679049 3.01030352 0 0 Z " fill="#21AD4A" transform="translate(132,83)"/>
<path d="M0 0 C1.21236328 0.02707031 1.21236328 0.02707031 2.44921875 0.0546875 C3.37154297 0.08949219 3.37154297 0.08949219 4.3125 0.125 C2.9925 0.455 1.6725 0.785 0.3125 1.125 C0.3125 1.785 0.3125 2.445 0.3125 3.125 C-0.285625 3.393125 -0.88375 3.66125 -1.5 3.9375 C-3.65974808 5.10993467 -5.04540256 6.31869282 -6.6875 8.125 C-7.3475 7.465 -8.0075 6.805 -8.6875 6.125 C-8.5 4.125 -8.5 4.125 -7.6875 2.125 C-4.48369983 -0.01086678 -3.66810033 -0.10632175 0 0 Z " fill="#143636" transform="translate(45.6875,129.875)"/>
<path d="M0 0 C2.625 0.375 2.625 0.375 5 1 C5.042721 2.66611905 5.04063832 4.33382885 5 6 C4 7 4 7 1.4375 7.0625 C0.2309375 7.0315625 0.2309375 7.0315625 -1 7 C-1.625 4.625 -1.625 4.625 -2 2 C-1.34 1.34 -0.68 0.68 0 0 Z " fill="#21AF4A" transform="translate(127,97)"/>
<path d="M0 0 C1.66611905 -0.042721 3.33382885 -0.04063832 5 0 C6 1 6 1 6.0625 3.5625 C6.041875 4.366875 6.02125 5.17125 6 6 C3.625 6.625 3.625 6.625 1 7 C0.34 6.34 -0.32 5.68 -1 5 C-0.625 2.375 -0.625 2.375 0 0 Z " fill="#21B04B" transform="translate(126,75)"/>
<path d="M0 0 C0.33 0.99 0.66 1.98 1 3 C-1 5 -1 5 -4.4375 5.3125 C-8 5 -8 5 -9.9375 3.5 C-10.4634375 2.7575 -10.4634375 2.7575 -11 2 C-8.70370006 0.85185003 -6.92301914 0.69230191 -4.375 0.4375 C-3.14910156 0.31181641 -3.14910156 0.31181641 -1.8984375 0.18359375 C-0.95871094 0.09271484 -0.95871094 0.09271484 0 0 Z " fill="#E5E5E5" transform="translate(93,150)"/>
<path d="M0 0 C-0.33 1.65 -0.66 3.3 -1 5 C-2.98 5.33 -4.96 5.66 -7 6 C-7.33 4.68 -7.66 3.36 -8 2 C-4.77208445 -0.1519437 -3.71599191 -0.20086443 0 0 Z " fill="#EBECEC" transform="translate(49,142)"/>
<path d="M0 0 C-0.33 1.65 -0.66 3.3 -1 5 C-2.98 5.33 -4.96 5.66 -7 6 C-7.33 4.68 -7.66 3.36 -8 2 C-4.77208445 -0.1519437 -3.71599191 -0.20086443 0 0 Z " fill="#EBECEC" transform="translate(160,142)"/>
<path d="M0 0 C1.4540625 0.0309375 1.4540625 0.0309375 2.9375 0.0625 C3.2675 1.3825 3.5975 2.7025 3.9375 4.0625 C0.9675 4.7225 -2.0025 5.3825 -5.0625 6.0625 C-3.98897059 0.08140756 -3.98897059 0.08140756 0 0 Z " fill="#ECEDED" transform="translate(45.0625,133.9375)"/>
<path d="M0 0 C2.25 0.25 2.25 0.25 4 1 C3.42655063 3.86724686 3.1385485 4.8614515 1 7 C-2.125 7.125 -2.125 7.125 -5 7 C-3.86873442 3.60620325 -2.77333918 2.21867135 0 0 Z " fill="#133434" transform="translate(94,151)"/>
<path d="M0 0 C1.4540625 0.0309375 1.4540625 0.0309375 2.9375 0.0625 C3.2675 1.3825 3.5975 2.7025 3.9375 4.0625 C0.6375 4.7225 -2.6625 5.3825 -6.0625 6.0625 C-3.76028481 0.07674051 -3.76028481 0.07674051 0 0 Z " fill="#F0F1F1" transform="translate(156.0625,133.9375)"/>
<path d="M0 0 C3.5625 0.1875 3.5625 0.1875 5.5625 2.1875 C4.2425 2.1875 2.9225 2.1875 1.5625 2.1875 C1.8925 3.1775 2.2225 4.1675 2.5625 5.1875 C0.2525 5.5175 -2.0575 5.8475 -4.4375 6.1875 C-4.480221 4.52138095 -4.47813832 2.85367115 -4.4375 1.1875 C-3.4375 0.1875 -3.4375 0.1875 0 0 Z " fill="#2E4848" transform="translate(115.4375,121.8125)"/>
<path d="M0 0 C3.3 0 6.6 0 10 0 C10 1.98 10 3.96 10 6 C9.01 6.495 9.01 6.495 8 7 C8 5.35 8 3.7 8 2 C5.69 2 3.38 2 1 2 C0.67 2.66 0.34 3.32 0 4 C0 2.68 0 1.36 0 0 Z " fill="#3B5454" transform="translate(119,136)"/>
<path d="M0 0 C0 0.33 0 0.66 0 1 C-1.051875 1.0825 -2.10375 1.165 -3.1875 1.25 C-7.27047209 2.05320762 -9.0122727 3.19334709 -12 6 C-11.875 4.1875 -11.875 4.1875 -11 2 C-7.0208455 -0.62262456 -4.58166871 -1.48230458 0 0 Z " fill="#234141" transform="translate(92,130)"/>
</svg>
